<?xml version="1.0" standalone="no"?>
<svg version="1.0" xmlns="http://www.w3.org/2000/svg"
 width="512.000000pt" height="512.000000pt" viewBox="0 0 512.000000 512.000000" >

<g transform="translate(0.000000,512.000000) scale(0.100000,-0.100000)">
<path d="M880 4680 l0 -440 -440 0 -440 0 0 -2120 0 -2120 2030 0 2030 0 0
422 0 423 -238 -238 -239 -239 -393 -114 c-216 -63 -395 -113 -397 -110 -2 2
46 181 107 398 l111 393 524 525 525 525 0 1568 0 1567 -1590 0 -1590 0 0
-440z m2743 223 c93 -44 169 -119 215 -212 l37 -75 3 -447 c3 -430 2 -450 -18
-509 -26 -77 -55 -123 -114 -182 -63 -62 -156 -106 -248 -118 -99 -13 -1961
-13 -2053 0 -178 25 -325 154 -369 325 -23 87 -23 842 -1 930 39 148 172 280
318 315 18 5 511 7 1097 7 l1065 -2 68 -32z m-1940 -1729 l58 -56 -65 -72
c-35 -39 -125 -138 -200 -221 -93 -103 -134 -155 -130 -165 84 -193 85 -372 5
-542 -78 -164 -228 -286 -406 -333 -75 -19 -223 -19 -300 0 -216 55 -395 234
-450 450 -20 77 -19 221 1 298 67 261 292 448 559 464 170 10 300 -34 455
-155 l25 -20 185 204 c102 112 189 204 195 204 5 0 36 -26 68 -56z m2197 -439
l0 -85 -1055 0 -1055 0 0 85 0 85 1055 0 1055 0 0 -85z m-350 -350 l0 -85
-880 0 -880 0 0 85 0 85 880 0 880 0 0 -85z m350 0 l0 -85 -85 0 -85 0 0 85 0
85 85 0 85 0 0 -85z m0 -355 l0 -90 -1055 0 -1055 0 0 90 0 90 1055 0 1055 0
0 -90z m-2145 -502 c0 -3 -81 -95 -180 -204 -242 -266 -219 -231 -191 -295
138 -314 -34 -698 -367 -817 -95 -34 -252 -42 -347 -17 -227 58 -398 229 -456
454 -24 96 -16 253 19 351 87 245 321 410 582 410 142 0 268 -44 385 -135 l55
-42 189 208 189 209 61 -57 c34 -32 61 -61 61 -65z m1003 -380 l3 -88 -486 0
-485 0 0 90 0 90 483 -2 482 -3 3 -87z m2 -353 l0 -85 -485 0 -485 0 0 85 0
85 485 0 485 0 0 -85z m-2 -352 l-3 -88 -482 -3 -483 -2 0 90 0 90 485 0 486
0 -3 -87z"/>
<path d="M1445 4760 c-87 -22 -147 -70 -181 -145 -24 -50 -24 -51 -24 -465 0
-415 0 -415 24 -466 13 -28 43 -67 67 -87 82 -70 31 -68 1165 -65 l1019 3 41
22 c56 30 103 79 128 133 20 43 21 64 24 438 2 337 1 402 -13 449 -19 66 -81
137 -145 167 -45 21 -52 21 -1060 23 -558 0 -1028 -2 -1045 -7z m495 -615 l0
-265 -262 2 -263 3 -3 263 -2 262 265 0 265 0 0 -265z m798 3 l-3 -263 -262
-3 -263 -2 0 265 0 265 265 0 265 0 -2 -262z m792 -3 l0 -265 -265 0 -265 0 0
265 0 265 265 0 265 0 0 -265z"/>
<path d="M1590 4150 l0 -90 90 0 91 0 -3 88 -3 87 -87 3 -88 3 0 -91z"/>
<path d="M2387 4233 c-4 -3 -7 -44 -7 -90 l0 -83 90 0 90 0 0 90 0 90 -83 0
c-46 0 -87 -3 -90 -7z"/>
<path d="M3180 4150 l0 -90 85 0 85 0 0 90 0 90 -85 0 -85 0 0 -90z"/>
<path d="M650 2800 c-67 -25 -151 -81 -191 -129 -45 -55 -87 -148 -100 -224
-30 -179 69 -371 235 -452 93 -46 178 -61 263 -47 195 32 345 183 372 372 8
62 0 167 -17 196 -5 8 -76 -64 -205 -207 l-199 -218 -164 110 -164 109 46 70
c26 39 51 70 56 70 5 0 49 -27 98 -60 49 -33 93 -60 98 -60 8 0 189 194 301
322 l33 38 -33 27 c-48 41 -88 64 -148 84 -74 26 -207 25 -281 -1z"/>
<path d="M725 1229 c-230 -33 -402 -266 -366 -497 38 -242 267 -411 502 -372
192 33 342 183 368 370 8 62 -1 167 -17 196 -5 9 -72 -59 -205 -205 l-198
-219 -164 110 -164 109 46 70 c25 38 50 69 55 69 5 0 49 -27 98 -60 49 -33 93
-60 98 -60 13 0 327 349 327 363 0 18 -117 92 -175 109 -74 22 -133 27 -205
17z"/>
<path d="M415 4700 l-290 -290 288 0 c222 0 289 3 292 13 3 7 4 137 3 290 l-3
277 -290 -290z"/>
<path d="M4852 2468 c-58 -10 -94 -34 -179 -120 l-73 -73 160 -160 160 -160
71 70 c90 90 120 139 126 212 12 144 -119 257 -265 231z"/>
<path d="M3840 1515 l-625 -625 48 -47 47 -48 630 630 630 630 -42 42 c-23 24
-47 43 -53 43 -5 0 -291 -281 -635 -625z"/>
<path d="M4060 1295 l-625 -625 50 -50 50 -50 630 630 630 630 -45 45 c-24 25
-49 45 -55 45 -5 0 -291 -281 -635 -625z"/>
<path d="M3121 673 c-6 -21 -26 -91 -45 -155 -18 -65 -29 -118 -24 -118 13 0
290 80 302 87 8 6 -202 223 -216 223 -4 0 -12 -17 -17 -37z"/>
</g>
</svg>
